<svg width="28" height="29" viewBox="0 0 28 29" fill="none" xmlns="http://www.w3.org/2000/svg">
<g filter="url(#filter0_d)">
<g clip-path="url(#clip0)">
<path d="M21.7782 14.25C21.7782 14.25 19.556 17.5072 19.556 18.75C19.556 19.9928 20.5511 21 21.7782 21C23.0053 21 24.0004 19.9928 24.0004 18.75C24.0004 17.5072 21.7782 14.25 21.7782 14.25ZM21.4528 10.631L14.2414 3.32941C14.0244 3.10969 13.74 3 13.4556 3C13.1712 3 12.8869 3.10969 12.6702 3.32941L9.83755 6.19746L6.84519 3.16734C6.62818 2.94762 6.27644 2.94762 6.05978 3.16734L5.27436 3.96258C5.05769 4.1823 5.05769 4.53844 5.27436 4.75781L8.26707 7.78758L4.97679 11.119C3.67505 12.4366 3.67505 14.5734 4.97679 15.8914L9.04589 20.0114C9.69658 20.6702 10.5497 21 11.4025 21C12.2556 21 13.1084 20.6706 13.7591 20.0114L21.4525 12.2218C21.8865 11.7824 21.8865 11.0705 21.4528 10.631ZM17.4174 13.1261H6.28964C6.33686 12.9911 6.4136 12.8455 6.54762 12.7102L7.00422 12.2479L9.8379 9.37875L11.8726 11.4389C12.3063 11.878 13.0098 11.878 13.4435 11.4389C13.8771 10.9998 13.8771 10.2875 13.4435 9.84844L11.4087 7.78828L13.4556 5.71582L19.0959 11.4266L17.4174 13.1261Z" fill="black" fill-opacity="0.5413"/>
</g>
</g>
<defs>
<filter id="filter0_d" x="0" y="3" width="28" height="26" filterUnits="userSpaceOnUse" color-interpolation-filters="sRGB">
<feFlood flood-opacity="0" result="BackgroundImageFix"/>
<feColorMatrix in="SourceAlpha" type="matrix" values="0 0 0 0 0 0 0 0 0 0 0 0 0 0 0 0 0 0 127 0"/>
<feOffset dy="4"/>
<feGaussianBlur stdDeviation="2"/>
<feColorMatrix type="matrix" values="0 0 0 0 0 0 0 0 0 0 0 0 0 0 0 0 0 0 0.25 0"/>
<feBlend mode="normal" in2="BackgroundImageFix" result="effect1_dropShadow"/>
<feBlend mode="normal" in="SourceGraphic" in2="effect1_dropShadow" result="shape"/>
</filter>
<clipPath id="clip0">
<rect width="20" height="18" fill="white" transform="translate(4 3)"/>
</clipPath>
</defs>
</svg>
